<?xml version="1.0" standalone="no"?>
<!DOCTYPE svg PUBLIC "-//W3C//DTD SVG 20010904//EN"
 "http://www.w3.org/TR/2001/REC-SVG-20010904/DTD/svg10.dtd">
<svg version="1.0" xmlns="http://www.w3.org/2000/svg"
 width="860.000000pt" height="676.000000pt" viewBox="0 0 860.000000 676.000000"
 preserveAspectRatio="xMidYMid meet">

<g transform="translate(0.000000,676.000000) scale(0.100000,-0.100000)"
fill="#000000" stroke="none">
<path d="M4272 6349 c-96 -12 -205 -43 -353 -100 -165 -63 -1264 -476 -2344
-879 -445 -167 -855 -322 -910 -344 -235 -97 -355 -194 -355 -285 0 -109 128
-213 461 -375 476 -231 1282 -557 2604 -1053 661 -248 714 -263 938 -263 197
0 313 32 647 178 414 181 2502 1041 2513 1035 4 -2 7 -235 7 -518 l0 -514
-200 -182 c-110 -100 -200 -184 -200 -188 0 -3 131 -137 291 -296 l290 -290
91 95 c50 52 180 187 289 300 l197 206 -139 140 -139 140 0 662 0 661 122 62
c79 41 139 79 171 110 46 44 49 51 44 84 -7 44 -34 78 -97 126 -129 97 -285
161 -2310 947 -608 237 -1106 434 -1158 461 -62 31 -193 70 -275 81 -87 11
-94 11 -185 -1z"/>
<path d="M6265 3261 c-121 -54 -402 -182 -625 -286 -502 -232 -741 -339 -845
-375 -296 -105 -684 -89 -1089 45 -562 185 -1242 421 -1472 509 -94 36 -174
66 -178 66 -3 0 -6 -439 -6 -974 l0 -975 83 -69 c432 -362 975 -605 1579 -706
568 -96 1116 -61 1633 104 396 127 779 342 1088 613 l67 59 0 1044 c0 574 -3
1044 -7 1044 -5 -1 -107 -45 -228 -99z"/>
</g>
</svg>
